
<svg width="500" height="240" xmlns="http://www.w3.org/2000/svg">
  <defs>
    <linearGradient id="bg" x1="0" y1="0" x2="1" y2="1">
      <stop offset="0%" stop-color="#1a1b2f"/>
      <stop offset="100%" stop-color="#12121f"/>
    </linearGradient>
  </defs>

  <rect width="500" height="240" rx="16" fill="url(#bg)"/>
  <text x="30" y="38" fill="#ff79c6" font-size="22" font-family="Segoe UI" font-weight="bold">
    Most Used Languages
  </text>

  <rect x="30" y="60" width="218.1826670081201" height="14" fill="#2b7489"/><rect x="248.1826670081201" y="60" width="98.79859762357479" height="14" fill="#f1e05a"/><rect x="346.9812646316949" y="60" width="60.626627475065206" height="14" fill="#e34c26"/><rect x="407.6078921067601" y="60" width="34.48794450324192" height="14" fill="#c6538c"/><rect x="442.09583661000204" y="60" width="26.846670035875274" height="14" fill="#563d7c"/><rect x="468.9425066458773" y="60" width="0.5389676170705563" height="14" fill="#384d54"/>
  
        <circle cx="40" cy="120" r="6" fill="#2b7489"/>
        <text x="54" y="125" fill="#ffffff" font-size="15" font-family="Segoe UI">
          TypeScript 49.59%
        </text>
      
        <circle cx="40" cy="148" r="6" fill="#f1e05a"/>
        <text x="54" y="153" fill="#ffffff" font-size="15" font-family="Segoe UI">
          JavaScript 22.45%
        </text>
      
        <circle cx="40" cy="176" r="6" fill="#e34c26"/>
        <text x="54" y="181" fill="#ffffff" font-size="15" font-family="Segoe UI">
          HTML 13.78%
        </text>
      
        <circle cx="270" cy="120" r="6" fill="#c6538c"/>
        <text x="284" y="125" fill="#ffffff" font-size="15" font-family="Segoe UI">
          SCSS 7.84%
        </text>
      
        <circle cx="270" cy="148" r="6" fill="#563d7c"/>
        <text x="284" y="153" fill="#ffffff" font-size="15" font-family="Segoe UI">
          CSS 6.10%
        </text>
      
        <circle cx="270" cy="176" r="6" fill="#384d54"/>
        <text x="284" y="181" fill="#ffffff" font-size="15" font-family="Segoe UI">
          Dockerfile 0.12%
        </text>
      
</svg>