
<svg width="500" height="240" xmlns="http://www.w3.org/2000/svg">
  <defs>
    <linearGradient id="bg" x1="0" y1="0" x2="1" y2="1">
      <stop offset="0%" stop-color="#1a1b2f"/>
      <stop offset="100%" stop-color="#12121f"/>
    </linearGradient>
  </defs>

  <rect width="500" height="240" rx="16" fill="url(#bg)"/>
  <text x="30" y="38" fill="#ff79c6" font-size="22" font-family="Segoe UI" font-weight="bold">
    Most Used Languages
  </text>

  <rect x="30" y="60" width="218.17673360331594" height="14" fill="#2b7489"/><rect x="248.17673360331594" y="60" width="98.79591082868947" height="14" fill="#f1e05a"/><rect x="346.9726444320054" y="60" width="60.63694440730358" height="14" fill="#e34c26"/><rect x="407.60958883930897" y="60" width="34.48700661510256" height="14" fill="#c6538c"/><rect x="442.0965954544115" y="60" width="26.845939949644542" height="14" fill="#563d7c"/><rect x="468.94253540405606" y="60" width="0.5389529600261069" height="14" fill="#384d54"/>
  
        <circle cx="40" cy="120" r="6" fill="#2b7489"/>
        <text x="54" y="125" fill="#ffffff" font-size="15" font-family="Segoe UI">
          TypeScript 49.59%
        </text>
      
        <circle cx="40" cy="148" r="6" fill="#f1e05a"/>
        <text x="54" y="153" fill="#ffffff" font-size="15" font-family="Segoe UI">
          JavaScript 22.45%
        </text>
      
        <circle cx="40" cy="176" r="6" fill="#e34c26"/>
        <text x="54" y="181" fill="#ffffff" font-size="15" font-family="Segoe UI">
          HTML 13.78%
        </text>
      
        <circle cx="270" cy="120" r="6" fill="#c6538c"/>
        <text x="284" y="125" fill="#ffffff" font-size="15" font-family="Segoe UI">
          SCSS 7.84%
        </text>
      
        <circle cx="270" cy="148" r="6" fill="#563d7c"/>
        <text x="284" y="153" fill="#ffffff" font-size="15" font-family="Segoe UI">
          CSS 6.10%
        </text>
      
        <circle cx="270" cy="176" r="6" fill="#384d54"/>
        <text x="284" y="181" fill="#ffffff" font-size="15" font-family="Segoe UI">
          Dockerfile 0.12%
        </text>
      
</svg>